# xmcd CD database file
#
# Track frame offsets:
#	150
#	14308
#	29190
#	40729
#	55251
#	68872
#	84541
#	97652
#	108559
#	119760
#	132474
#	148075
#	159282
#	172328
#
# Disc length: 2549 seconds
#
# Revision: 0
# Processed by: cddbd v1.4PL0 Copyright (c) Steve Scherf et al.
# Submitted via: CDex 1.40Release
#
DISCID=c909f30e
DTITLE=Corey Harris - 5x5 (Solo Set)
DYEAR=2001
DGENRE=Blues
TTITLE0=CC Pill Blues
TTITLE1=Bumble Bee
TTITLE2=Big Road Blues
TTITLE3=Pony Blues
TTITLE4=King Cotton
TTITLE5=Shake What Your Moma Gave You
TTITLE6=Parchman Farm Blues
TTITLE7=Keep Your Lamp Trimmed and Burning
TTITLE8=Walking Blues
TTITLE9=CC Rider
TTITLE10=Take Me Back
TTITLE11=Honeysuckle
TTITLE12=Sweetest Fruit
TTITLE13=Untitled
EXTD=YEAR: 2001 ID3G: 0
EXTT0=
EXTT1=
EXTT2=
EXTT3=
EXTT4=
EXTT5=
EXTT6=
EXTT7=
EXTT8=
EXTT9=
EXTT10=
EXTT11=
EXTT12=
EXTT13=
PLAYORDER=
